<?xml version="1.0" standalone="no"?>
<!DOCTYPE svg PUBLIC "-//W3C//DTD SVG 20010904//EN"
 "http://www.w3.org/TR/2001/REC-SVG-20010904/DTD/svg10.dtd">
<svg version="1.0" xmlns="http://www.w3.org/2000/svg"
 width="762.000000pt" height="568.000000pt" viewBox="0 0 762.000000 568.000000"
 preserveAspectRatio="xMidYMid meet">

<g transform="translate(0.000000,568.000000) scale(0.100000,-0.100000)"
fill="#000000" stroke="none">
<path d="M3915 4535 c-283 -15 -573 -43 -770 -75 -88 -14 -242 -40 -300 -50
-167 -30 -309 -82 -443 -162 -83 -49 -130 -87 -216 -174 -61 -61 -131 -139
-156 -173 -25 -35 -52 -72 -60 -83 -11 -14 -47 -26 -126 -43 -188 -40 -213
-56 -277 -180 -59 -115 -61 -122 -29 -152 27 -25 30 -48 12 -88 -5 -11 -24
-63 -43 -115 l-34 -95 -43 -7 c-86 -15 -86 -15 -94 -205 -10 -243 -1 -221
-114 -284 -54 -29 -113 -62 -132 -74 -19 -12 -68 -41 -108 -65 -136 -80 -159
-126 -193 -390 -9 -74 -15 -89 -44 -122 -19 -20 -41 -50 -49 -66 -31 -60 -55
-179 -62 -306 -7 -122 -9 -131 -33 -153 l-25 -24 15 -212 c21 -310 33 -327
232 -338 67 -4 140 -8 163 -8 36 -1 42 -5 57 -36 9 -20 17 -42 17 -49 0 -27
99 -164 149 -206 28 -24 51 -49 51 -55 0 -12 -64 -25 -126 -25 -23 0 -34 -5
-34 -14 0 -16 59 -20 510 -37 438 -16 2433 -23 3165 -10 1261 22 2088 61 2053
97 -4 3 -365 26 -538 34 -3 0 18 15 46 34 96 65 164 159 208 286 9 25 16 55
16 66 0 29 17 34 105 34 63 0 78 3 101 23 24 21 27 32 32 98 6 102 -17 275
-48 354 -26 65 -66 142 -96 181 -19 24 -34 48 -34 53 0 13 38 21 101 21 97 0
103 11 128 255 41 396 36 1236 -8 1288 -11 14 -302 172 -401 218 -19 9 -57 26
-85 39 -27 12 -101 47 -163 76 -63 30 -115 54 -117 54 -2 0 -46 20 -97 44 -51
24 -149 69 -218 99 -69 30 -150 66 -180 80 -76 35 -256 112 -370 159 -52 21
-106 44 -121 50 -20 9 -27 22 -36 71 -14 72 -40 102 -122 142 -50 23 -60 33
-70 65 -15 52 -10 50 -351 121 -118 25 -285 49 -325 47 -16 0 -138 -7 -270
-13z m469 -91 c280 -50 391 -75 402 -90 20 -26 32 -2699 13 -2719 -8 -7 -517
-5 -758 4 l-174 6 -18 34 c-10 19 -16 38 -13 43 3 4 166 9 362 10 376 1 386
11 25 24 -116 4 -199 11 -208 18 -12 9 -13 28 -5 111 11 118 11 799 1 835 -12
39 -18 -53 -19 -310 -1 -124 -5 -316 -9 -428 -5 -172 -9 -204 -22 -210 -9 -4
-49 -6 -89 -4 -70 4 -73 5 -100 40 -56 75 -169 185 -234 228 -120 80 -250 124
-370 124 -57 0 -69 3 -78 20 -7 12 -10 86 -10 188 2 345 0 417 -10 402 -5 -8
-10 -59 -10 -112 0 -95 -1 -98 -22 -98 -13 0 -63 -13 -113 -29 -49 -15 -112
-35 -140 -44 -108 -34 -309 -108 -324 -119 -29 -23 -39 -42 -51 -98 -6 -30
-16 -71 -21 -91 -11 -44 -12 -89 -1 -89 23 1 35 27 55 126 l23 109 64 21 c374
123 502 164 515 164 13 0 15 -23 15 -156 0 -158 -7 -194 -38 -194 -37 0 -171
-40 -236 -70 -70 -32 -172 -96 -194 -123 -10 -11 -9 -17 3 -27 11 -9 20 -8 42
8 81 56 221 117 331 143 246 57 506 -26 682 -219 167 -183 269 -461 270 -739
0 -83 -2 -93 -21 -103 -11 -6 -30 -10 -42 -8 -21 3 -22 9 -29 128 -6 128 -14
169 -50 275 -56 164 -166 301 -288 359 -59 28 -74 31 -166 31 -96 0 -103 -2
-176 -38 -54 -26 -92 -54 -132 -97 -58 -63 -116 -142 -116 -158 0 -28 -35 -35
-178 -37 -81 -1 -169 0 -195 3 -47 5 -49 6 -42 31 12 52 24 97 35 136 46 163
47 175 9 245 -18 34 -44 70 -57 81 -57 45 -185 7 -272 -81 -58 -58 -89 -122
-112 -234 -12 -57 -12 -59 12 -78 23 -19 36 -20 161 -16 103 3 143 8 161 20
25 16 40 50 75 162 10 33 24 62 32 64 11 4 12 -1 6 -19 -4 -13 -9 -40 -12 -59
-2 -19 -8 -44 -13 -55 -5 -11 -11 -31 -14 -45 -10 -53 -24 -97 -37 -126 l-14
-29 -240 -3 c-132 -1 -245 0 -251 2 -8 3 -4 21 14 55 13 29 28 68 33 89 4 20
17 75 29 122 26 104 32 132 61 290 17 93 23 165 23 280 l1 155 245 98 c338
135 466 177 538 177 97 0 146 45 196 180 15 41 32 84 36 95 31 72 170 485 170
506 0 9 -7 22 -15 29 -25 21 -6 32 42 25 24 -3 88 -10 141 -15 84 -7 228 -21
722 -70 94 -9 311 -12 250 -4 -14 2 -55 9 -92 14 -38 6 -97 15 -133 20 -36 5
-95 14 -133 20 -61 9 -225 29 -412 51 -41 5 -129 13 -195 19 -175 14 -234 21
-239 29 -5 8 95 167 150 239 34 45 40 73 7 35 -34 -38 -57 -43 -215 -43 -234
0 -642 -29 -971 -70 -78 -9 -140 -13 -143 -8 -17 27 219 282 327 354 84 56
239 124 345 152 179 48 516 96 899 127 517 42 566 42 749 9z m552 -215 c19
-11 39 -29 44 -39 6 -12 10 -449 10 -1223 l0 -1204 -24 -22 c-17 -16 -33 -22
-57 -19 l-34 3 -5 335 c-5 302 -5 574 -1 1813 1 419 -3 399 67 356z m-1691
-409 c9 -15 -86 -138 -115 -149 -14 -5 -142 -14 -285 -20 -489 -21 -737 -45
-1165 -111 -37 -6 -57 -5 -61 2 -9 14 47 105 75 122 30 19 330 76 506 96 477
54 1029 86 1045 60z m-607 -247 c-16 -2 -40 -2 -55 0 -16 2 -3 4 27 4 30 0 43
-2 28 -4z m-260 -20 c-21 -2 -55 -2 -75 0 -21 2 -4 4 37 4 41 0 58 -2 38 -4z
m-200 -20 c-16 -2 -40 -2 -55 0 -16 2 -3 4 27 4 30 0 43 -2 28 -4z m967 -33
c3 -5 0 -24 -8 -42 -8 -18 -49 -121 -92 -228 -42 -107 -83 -208 -90 -225 -7
-16 -27 -67 -45 -112 -25 -65 -37 -83 -52 -83 -15 0 -18 4 -12 23 7 24 98 253
120 305 8 17 20 47 28 65 8 17 33 79 56 137 67 170 78 188 95 160z m-1195 -72
c0 -7 -28 -58 -63 -113 -34 -55 -88 -143 -120 -195 -79 -128 -143 -231 -195
-313 -42 -67 -43 -67 -87 -67 -29 0 -48 5 -51 14 -5 13 23 103 53 176 8 19 19
44 23 55 5 11 32 83 60 160 29 77 65 168 81 202 26 54 34 63 62 68 18 3 52 10
77 14 72 14 160 13 160 -1z m700 -687 c21 -6 -1 -17 -125 -66 -164 -63 -214
-85 -352 -151 -80 -39 -95 -43 -120 -33 -39 15 -572 15 -704 0 -57 -7 -148
-19 -202 -27 -143 -21 -151 -19 -95 16 27 17 51 30 54 30 3 0 18 8 32 18 15
11 70 42 123 70 112 59 210 82 454 106 317 31 877 53 935 37z m-681 -270 c74
-6 86 -9 107 -34 20 -24 24 -39 24 -99 0 -39 -5 -98 -10 -132 -42 -253 -52
-309 -81 -441 -12 -55 -25 -116 -29 -135 -11 -56 -38 -103 -76 -131 -34 -26
-39 -27 -237 -34 -111 -4 -323 -5 -472 -3 -261 3 -271 4 -301 25 -48 34 -57
90 -57 343 1 333 32 520 94 558 38 24 402 75 609 85 112 6 348 5 429 -2z m425
-597 c71 -72 -5 -234 -109 -234 -43 0 -85 52 -85 107 0 118 122 198 194 127z
m-1610 -46 c22 -31 22 -146 0 -176 -20 -29 -54 -25 -72 8 -15 28 -11 119 6
163 14 33 45 36 66 5z m5777 -157 c63 -65 129 -184 147 -266 6 -27 16 -71 22
-97 5 -26 10 -85 10 -132 0 -82 -1 -86 -24 -92 -13 -3 -34 -4 -47 -2 -22 3
-24 9 -35 113 -15 142 -28 194 -72 284 -45 92 -126 178 -200 212 l-53 24 83 6
c46 3 90 6 98 7 7 1 40 -25 71 -57z m-351 31 c0 -5 -17 -16 -37 -25 -143 -63
-242 -249 -288 -539 -7 -43 -36 -66 -55 -43 -12 14 -4 114 20 271 15 95 13
123 -15 155 -29 35 -25 50 24 102 39 42 79 66 126 78 42 10 225 11 225 1z
m-3045 -124 c-16 -13 -55 -47 -87 -77 -33 -31 -58 -48 -58 -39 0 25 72 99 114
118 56 25 66 24 31 -2z m-2327 -45 c25 -54 13 -64 -70 -61 -72 3 -73 3 -79 33
-9 50 2 60 71 60 61 0 63 -1 78 -32z m4312 17 c78 -78 93 -366 27 -485 -23
-41 -62 -63 -91 -52 -14 5 -13 12 8 54 13 26 29 83 36 126 21 127 -12 303 -64
346 -22 19 -10 31 30 31 21 0 42 -8 54 -20z m560 -24 c26 -8 40 -21 53 -51 17
-34 19 -58 15 -190 -4 -150 -18 -216 -51 -237 -14 -9 -468 -11 -490 -2 -12 4
-11 16 5 77 25 90 21 283 -6 360 -9 26 -14 52 -11 58 9 13 437 0 485 -15z
m-685 -26 c45 -17 59 -68 59 -220 1 -116 -2 -141 -19 -175 -19 -39 -22 -40
-70 -40 -40 0 -49 3 -46 15 26 102 33 180 21 264 -7 48 -18 103 -26 121 -11
26 -11 35 -1 38 21 9 54 7 82 -3z m-102 -87 c24 -62 20 -256 -6 -315 l-16 -38
-442 0 -442 0 6 103 c4 56 2 144 -3 196 -5 52 -6 99 -3 104 3 6 179 7 447 4
l441 -6 18 -48z m-2111 -5 c3 -7 2 -24 -2 -38 l-6 -25 -1074 0 -1075 0 -3 23
c-8 55 -81 52 1082 52 850 0 1075 -3 1078 -12z m631 -48 c48 -30 97 -90 124
-150 11 -24 16 -67 17 -135 1 -90 -2 -106 -27 -160 -104 -222 -327 -225 -434
-7 -25 51 -28 67 -27 157 1 81 5 110 23 150 71 159 207 220 324 145z m2886
-15 c66 -48 111 -144 111 -235 0 -81 -38 -176 -91 -228 -137 -134 -317 47
-279 279 13 79 59 162 103 189 46 29 114 26 156 -5z m-5361 -105 c8 -25 18
-54 22 -65 5 -11 13 -34 20 -52 6 -17 23 -42 37 -55 24 -23 28 -23 275 -26
214 -3 253 -1 274 13 23 15 65 89 94 165 29 76 -17 70 571 70 401 0 528 -3
531 -12 3 -7 0 -32 -4 -57 -5 -26 -14 -71 -19 -101 -15 -83 -29 -123 -53 -149
l-21 -23 -930 7 c-511 3 -957 10 -989 15 -34 6 -68 17 -77 27 -29 29 -55 264
-32 287 4 3 70 5 147 4 l139 -3 15 -45z m582 10 c5 -8 10 -43 10 -77 0 -99 4
-97 -239 -88 -113 4 -209 9 -213 11 -5 3 -8 41 -8 84 0 66 3 79 18 83 9 3 108
5 220 4 168 -2 204 -5 212 -17z m4389 -391 c29 -69 47 -97 106 -156 39 -40 67
-73 63 -73 -25 0 -88 36 -121 68 -76 73 -149 268 -93 249 5 -2 25 -41 45 -88z
m-225 65 c9 -8 16 -21 16 -27 0 -7 13 -40 30 -75 33 -70 111 -159 165 -188 41
-22 41 -39 -1 -39 -16 0 -298 4 -626 9 -446 6 -595 11 -592 20 2 6 21 20 40
31 55 29 130 119 170 201 l35 74 262 3 c144 1 312 3 374 5 90 2 115 -1 127
-14z m-1749 -4 c3 -5 34 -10 69 -10 72 0 75 -3 121 -93 29 -59 126 -160 164
-172 10 -3 21 -12 24 -19 4 -10 -65 -14 -356 -20 -209 -4 -364 -3 -369 2 -5 5
1 21 15 38 42 50 86 132 108 202 12 37 24 70 26 75 6 11 191 9 198 -3z m-1098
-12 c4 -7 17 -40 28 -74 28 -83 78 -162 148 -235 32 -33 56 -63 54 -66 -11
-10 -109 52 -148 95 -81 87 -151 292 -100 292 5 0 13 -6 18 -12z m1440 -50
c33 -67 78 -124 134 -168 29 -23 44 -40 35 -40 -26 0 -88 29 -115 53 -40 37
-101 138 -101 169 0 41 23 35 47 -14z m-3080 -6 c6 -4 28 -40 49 -79 36 -71
117 -162 179 -203 l30 -20 -31 0 c-38 0 -108 45 -164 106 -81 88 -130 238 -63
196z m1475 -69 c20 -43 57 -102 83 -132 25 -29 44 -55 42 -57 -6 -6 -146 -13
-467 -24 -168 -6 -347 -13 -397 -16 -51 -3 -93 -3 -93 0 0 4 24 32 53 64 59
64 102 125 136 195 l24 47 291 0 292 0 36 -77z"/>
<path d="M3930 4100 c-41 -9 -83 -20 -92 -25 -24 -10 -23 -32 1 -45 25 -13
650 -14 670 -1 21 14 -11 59 -54 77 -52 22 -424 18 -525 -6z"/>
<path d="M3403 3480 c-12 -5 -26 -17 -31 -27 -26 -48 -154 -459 -173 -552 -9
-45 -5 -62 10 -45 12 12 51 138 51 163 0 11 5 23 10 26 6 3 10 17 10 30 0 13
5 27 10 30 6 3 10 19 10 35 0 16 5 32 11 36 14 8 10 -17 -32 -181 -31 -122
-22 -239 22 -289 32 -37 27 -48 -23 -60 -15 -3 -30 -15 -33 -26 -10 -32 4 -78
27 -85 32 -11 86 4 93 24 3 10 31 34 63 53 l57 35 115 -9 c63 -5 152 -8 197
-6 93 3 123 19 161 84 22 38 22 43 20 351 l-3 311 -25 27 c-14 15 -35 31 -48
36 -19 7 -434 50 -467 48 -5 0 -20 -4 -32 -9z m116 -54 c10 -11 8 -16 -8 -21
-10 -3 -30 -3 -43 0 -13 3 -36 1 -51 -4 -30 -12 -35 -1 -11 23 20 20 97 21
113 2z m-183 -233 c-11 -11 -19 6 -11 24 8 17 8 17 12 0 3 -10 2 -21 -1 -24z
m357 -22 c21 -21 22 -30 22 -215 0 -178 -2 -196 -19 -215 -16 -18 -29 -21 -70
-19 l-51 3 -8 215 c-4 118 -5 226 -2 239 6 22 10 23 56 19 34 -4 58 -12 72
-27z"/>
<path d="M3762 2338 c-14 -14 -16 -87 -2 -108 9 -14 110 -29 157 -22 49 7 48
123 0 136 -39 10 -143 6 -155 -6z"/>
<path d="M4060 2225 c0 -12 17 -15 88 -16 48 0 107 -1 132 -2 25 0 70 1 100 2
44 3 28 6 -75 16 -185 19 -245 19 -245 0z"/>
<path d="M1430 2349 c-124 -5 -277 -13 -340 -18 -100 -9 -117 -13 -133 -32
-15 -19 -16 -24 -4 -36 12 -12 46 -13 213 -4 109 6 307 13 439 16 399 10 422
13 391 60 -12 19 -25 20 -177 21 -90 1 -265 -3 -389 -7z"/>
<path d="M1385 2208 c-364 -11 -445 -18 -459 -40 -19 -31 5 -53 55 -52 248 5
969 27 986 30 23 4 41 44 28 63 -7 13 -200 12 -610 -1z"/>
<path d="M1450 2073 c-30 -2 -156 -7 -280 -12 -124 -5 -233 -12 -243 -16 -12
-5 -17 -16 -15 -34 l3 -26 200 0 c110 0 343 4 518 9 340 10 352 12 345 60 -3
21 -6 21 -238 22 -129 0 -260 -1 -290 -3z"/>
<path d="M1390 1930 c-85 -4 -221 -8 -301 -9 -124 -1 -150 -4 -168 -18 -22
-19 -20 -57 4 -67 7 -2 136 0 286 4 151 5 371 9 490 10 238 0 253 4 247 55
l-3 30 -200 1 c-110 0 -270 -3 -355 -6z"/>
<path d="M1172 1780 c-210 -4 -254 -8 -262 -20 -14 -22 -12 -35 8 -53 17 -15
47 -16 338 -7 175 5 392 10 481 10 154 0 163 1 177 22 11 15 12 26 5 40 -9 17
-25 18 -252 16 -133 -1 -356 -5 -495 -8z"/>
<path d="M1375 1641 c-237 -4 -436 -10 -443 -15 -21 -12 -14 -52 11 -65 34
-18 882 -12 914 7 21 11 42 57 31 67 -10 11 -115 12 -513 6z"/>
<path d="M3300 1323 c-106 -37 -177 -189 -150 -320 28 -134 147 -230 241 -194
40 15 97 68 127 120 24 41 27 56 27 141 0 100 -13 138 -68 198 -45 49 -125 74
-177 55z"/>
<path d="M6194 1301 c-94 -57 -116 -267 -39 -359 75 -89 161 -73 225 43 18 32
23 56 23 122 0 70 -4 87 -27 126 -48 83 -116 108 -182 68z"/>
</g>
</svg>
